<?xml version="1.0" encoding="utf-8"?>
<!-- Generator: Adobe Illustrator 22.0.0, SVG Export Plug-In . SVG Version: 6.00 Build 0)  -->
<svg version="1.1" id="Laag_1" xmlns="http://www.w3.org/2000/svg" xmlns:xlink="http://www.w3.org/1999/xlink" x="0px" y="0px"
	 viewBox="0 0 150 120" style="enable-background:new 0 0 150 120;" xml:space="preserve">
<style type="text/css">
	.st0{fill:none;stroke:#0027FF;stroke-width:0.3713;stroke-miterlimit:10;}
	.st1{fill:none;stroke:#0027FF;stroke-width:0.7227;stroke-miterlimit:10;}
	.st2{fill:none;stroke:#222221;stroke-width:0.7227;stroke-miterlimit:10;}
</style>
<circle class="st0" cx="34.8" cy="49.5" r="15.3"/>
<circle class="st0" cx="76.1" cy="41.5" r="15.3"/>
<path class="st1" d="M47.4,87.8c0.9-13.5,10.2-25,23.2-27.3c15.6-2.8,30.6,8.5,33.6,25.3c0.1,0.5,0.2,1,0.2,1.5"/>
<path class="st1" d="M100.6,75.4c4.1-3.5,9.2-5.7,14.8-6.3c15.7-1.5,29.9,10.9,31.5,27.9c0.1,0.5,0.1,1,0.1,1.6"/>
<path class="st1" d="M50.9,75.4c-4.1-3.5-9.2-5.7-14.8-6.3C20.3,67.6,6.2,80.1,4.5,97c-0.1,0.5-0.1,1-0.1,1.6"/>
<path class="st1" d="M100.6,75.4"/>
<path class="st2" d="M90.1,94.5"/>
<circle class="st0" cx="117.8" cy="49.5" r="15.3"/>
</svg>
